# xmcd
#
# Track frame offsets: 
#        150
#        11844
#        25688
#        37030
#        48011
#        61553
#        72968
#        84046
#        94634
#        108191
#        119167
#        130088
#        140984
#        154385
#        164962
#        175441
#        188092
#        198981
#        210746
#        219453
#        232266
#        242455
#        253889
#        265298
#        278232
#        288726
#
# Disc length: 4050 seconds
#
# Revision: 1
# Processed by: cddbd v1.5.2PL0 Copyright (c) Steve Scherf et al.
# Submitted via: ExactAudioCopy v0.95a5
#
DISCID=8b0fd01a
DTITLE=Various Artist - Kent's Cellar Of Soul, Vol. 2
DYEAR=2006
DGENRE=Soul
TTITLE0=Dee Dee Warwick - We're Doing Fine
TTITLE1=J J Jackson - Sho' Nuff (Got A Good Thing Goin')
TTITLE2=James and Bobby Purify - Do Unto Me
TTITLE3=Bobby Wells - Let's Copp A Groove
TTITLE4=Joe Tex - You Better Believe It, Baby
TTITLE5=Bobby Lynn - Earthquake
TTITLE6=The Olympics - Mine Exclusively
TTITLE7=Geno Washington - Water
TTITLE8=Al Kent - You've Got To Pay The Price
TTITLE9=Billy Butler and The Chanters - I Can't Work No Longer
TTITLE10=The Carltons - Can't You Hear The Beat
TTITLE11=Leon Haywood - It's Got To Be Mellow
TTITLE12=Debbie Taylor - Never Gonna Let Him Know
TTITLE13=Roddie Joy - Come Back Baby
TTITLE14=The Holidays, Edwin Starr - I'll Love You Forever
TTITLE15=The Intrigues - In A Moment
TTITLE16=Darrow Fletcher - The Pain Gets A Little Deeper
TTITLE17=King George - Drive On James
TTITLE18=Prince and Princess - Ready Steady Go
TTITLE19=Timmy Willis - Mr Soul Satisfaction
TTITLE20=The Spidells, Billy Lockridge - Hmmm, With Feeling, Darling
TTITLE21=The Vibrations - Love In Them There Hills
TTITLE22=Otis Leavill - Keep On Loving
TTITLE23=Tommy G and The Charms - I Want You So Bad
TTITLE24=Al Greene and The Soul Brothers - Back Up Train
TTITLE25=The Unifics - The Beginning Of My End
EXTD=
EXTT0=
EXTT1=
EXTT2=
EXTT3=
EXTT4=
EXTT5=
EXTT6=
EXTT7=
EXTT8=
EXTT9=
EXTT10=
EXTT11=
EXTT12=
EXTT13=
EXTT14=
EXTT15=
EXTT16=
EXTT17=
EXTT18=
EXTT19=
EXTT20=
EXTT21=
EXTT22=
EXTT23=
EXTT24=
EXTT25=
PLAYORDER=
